<?xml version="1.0" encoding="utf-8"?><svg xmlns="http://www.w3.org/2000/svg" version="1.1" baseProfile="tiny" width="1200" height="800" viewBox="0 0 1200 800"><g><g stroke="#000000" stroke-width=".98" fill="#FFFFFF"><path d="m64.57 338.85l78.25 38.7 71.51 36.68 166.84 89.74 102.16 56.08 183.87 106.05 17.04-12.25 34.02-16.31 47.69-19.36 28.97-8.16 25.5-6.11 28.97 5.1 40.86 19.37 18.71 17.32 28.97 11.24 15.31 14.26 6.83 18.36 20.4 4.06 30.66-7.12 56.2-17.34 59.58-26.52 35.75-16.31 25.55-20.4 6.79-13.26-5.05-13.23-1.69-19.36-13.62-20.4 0-30.58-18.71-27.52-17.04-16.34-13.62-15.27-13.62-17.32-3.41-25.51-25.51-68.29-56.16-178.44-11.93-27.52-10.2-14.29-13.62-8.16-61.31-4.06-27.23 5.1-40.86-3.06-45.96 6.11-34.07 6.11-66.4 11.21-42.54 20.4-20.45 4.1-39.18 11.21-37.43 12.21-136.24 20.41-81.71 24.46-37.44 10.2-28.96 10.2-56.21 10.21-27.24 10.17-23.82 10.2-28.92 11.21-32.39 4.09-10.2 0-107.26 20.4 59.57 27.53z" /></g></g></svg>